<?xml version="1.0" encoding="UTF-8" standalone="no"?>
<!DOCTYPE svg PUBLIC "-//W3C//DTD SVG 1.1//EN"
 "http://www.w3.org/Graphics/SVG/1.1/DTD/svg11.dtd">
<!-- Generated by graphviz version 5.0.0 (20220707.1540)
 -->
<!-- Title: dependencies Pages: 1 -->
<svg width="2222pt" height="247pt"
 viewBox="0.00 0.00 2222.00 246.80" xmlns="http://www.w3.org/2000/svg" xmlns:xlink="http://www.w3.org/1999/xlink">
<g id="graph0" class="graph" transform="scale(1 1) rotate(0) translate(4 242.8)">
<title>dependencies</title>
<polygon fill="white" stroke="transparent" points="-4,4 -4,-242.8 2218,-242.8 2218,4 -4,4"/>
<text text-anchor="middle" x="1107" y="-8.2" font-family="sans-serif" font-size="14.00">dependencies</text>
<g id="clust1" class="cluster">
<title>cluster_AppModule</title>
<polygon fill="none" stroke="black" stroke-dasharray="1,5" points="8,-32.8 8,-230.8 2206,-230.8 2206,-32.8 8,-32.8"/>
</g>
<g id="clust2" class="cluster">
<title>cluster_AppModule_declarations</title>
<polygon fill="none" stroke="black" points="1475,-40.8 1475,-92.8 2198,-92.8 2198,-40.8 1475,-40.8"/>
</g>
<g id="clust7" class="cluster">
<title>cluster_AppModule_imports</title>
<polygon fill="none" stroke="black" points="1198,-40.8 1198,-92.8 1467,-92.8 1467,-40.8 1198,-40.8"/>
</g>
<g id="clust9" class="cluster">
<title>cluster_AppModule_bootstrap</title>
<polygon fill="none" stroke="black" points="1197,-170.8 1197,-222.8 1321,-222.8 1321,-170.8 1197,-170.8"/>
</g>
<g id="clust10" class="cluster">
<title>cluster_AppModule_providers</title>
<polygon fill="none" stroke="black" points="16,-40.8 16,-92.8 1190,-92.8 1190,-40.8 16,-40.8"/>
</g>
<!-- AppComponent -->
<g id="node1" class="node">
<title>AppComponent</title>
<polygon fill="#ffffb3" stroke="black" points="2189.94,-84.8 2084.06,-84.8 2084.06,-48.8 2189.94,-48.8 2189.94,-84.8"/>
<text text-anchor="middle" x="2137" y="-62.6" font-family="Times,serif" font-size="14.00">AppComponent</text>
</g>
<!-- AppModule -->
<g id="node5" class="node">
<title>AppModule</title>
<polygon fill="#8dd3c7" stroke="black" points="1300.66,-149.8 1297.66,-153.8 1276.66,-153.8 1273.66,-149.8 1217.34,-149.8 1217.34,-113.8 1300.66,-113.8 1300.66,-149.8"/>
<text text-anchor="middle" x="1259" y="-127.6" font-family="Times,serif" font-size="14.00">AppModule</text>
</g>
<!-- AppComponent&#45;&gt;AppModule -->
<g id="edge1" class="edge">
<title>AppComponent&#45;&gt;AppModule</title>
<path fill="none" stroke="black" d="M2137,-85.05C2137,-107.82 2137,-143.8 2137,-143.8 2137,-143.8 1310.76,-143.8 1310.76,-143.8"/>
<polygon fill="black" stroke="black" points="1310.76,-140.3 1300.76,-143.8 1310.76,-147.3 1310.76,-140.3"/>
</g>
<!-- ConfirmationModalComponent -->
<g id="node2" class="node">
<title>ConfirmationModalComponent</title>
<polygon fill="#ffffb3" stroke="black" points="2066.82,-84.8 1873.18,-84.8 1873.18,-48.8 2066.82,-48.8 2066.82,-84.8"/>
<text text-anchor="middle" x="1970" y="-62.6" font-family="Times,serif" font-size="14.00">ConfirmationModalComponent</text>
</g>
<!-- ConfirmationModalComponent&#45;&gt;AppModule -->
<g id="edge2" class="edge">
<title>ConfirmationModalComponent&#45;&gt;AppModule</title>
<path fill="none" stroke="black" d="M1970,-85.08C1970,-106.12 1970,-137.8 1970,-137.8 1970,-137.8 1310.82,-137.8 1310.82,-137.8"/>
<polygon fill="black" stroke="black" points="1310.82,-134.3 1300.82,-137.8 1310.82,-141.3 1310.82,-134.3"/>
</g>
<!-- EditConfigurationModalComponent -->
<g id="node3" class="node">
<title>EditConfigurationModalComponent</title>
<polygon fill="#ffffb3" stroke="black" points="1854.76,-84.8 1635.24,-84.8 1635.24,-48.8 1854.76,-48.8 1854.76,-84.8"/>
<text text-anchor="middle" x="1745" y="-62.6" font-family="Times,serif" font-size="14.00">EditConfigurationModalComponent</text>
</g>
<!-- EditConfigurationModalComponent&#45;&gt;AppModule -->
<g id="edge3" class="edge">
<title>EditConfigurationModalComponent&#45;&gt;AppModule</title>
<path fill="none" stroke="black" d="M1745,-84.91C1745,-104.14 1745,-131.8 1745,-131.8 1745,-131.8 1310.86,-131.8 1310.86,-131.8"/>
<polygon fill="black" stroke="black" points="1310.86,-128.3 1300.86,-131.8 1310.86,-135.3 1310.86,-128.3"/>
</g>
<!-- ListViewComponent -->
<g id="node4" class="node">
<title>ListViewComponent</title>
<polygon fill="#ffffb3" stroke="black" points="1616.94,-84.8 1483.06,-84.8 1483.06,-48.8 1616.94,-48.8 1616.94,-84.8"/>
<text text-anchor="middle" x="1550" y="-62.6" font-family="Times,serif" font-size="14.00">ListViewComponent</text>
</g>
<!-- ListViewComponent&#45;&gt;AppModule -->
<g id="edge4" class="edge">
<title>ListViewComponent&#45;&gt;AppModule</title>
<path fill="none" stroke="black" d="M1550,-84.82C1550,-102.17 1550,-125.8 1550,-125.8 1550,-125.8 1310.69,-125.8 1310.69,-125.8"/>
<polygon fill="black" stroke="black" points="1310.69,-122.3 1300.69,-125.8 1310.69,-129.3 1310.69,-122.3"/>
</g>
<!-- AppComponent  -->
<g id="node8" class="node">
<title>AppComponent </title>
<polygon fill="#80b1d3" stroke="black" points="1313.44,-214.8 1204.56,-214.8 1204.56,-178.8 1313.44,-178.8 1313.44,-214.8"/>
<text text-anchor="middle" x="1259" y="-192.6" font-family="Times,serif" font-size="14.00">AppComponent </text>
</g>
<!-- AppModule&#45;&gt;AppComponent  -->
<g id="edge7" class="edge">
<title>AppModule&#45;&gt;AppComponent </title>
<path fill="none" stroke="black" stroke-dasharray="1,5" d="M1259,-149.91C1259,-149.91 1259,-168.79 1259,-168.79"/>
<polygon fill="black" stroke="black" points="1255.5,-168.79 1259,-178.79 1262.5,-168.79 1255.5,-168.79"/>
</g>
<!-- AppRoutingModule -->
<g id="node6" class="node">
<title>AppRoutingModule</title>
<polygon fill="#8dd3c7" stroke="black" points="1459.28,-84.8 1456.28,-88.8 1435.28,-88.8 1432.28,-84.8 1330.72,-84.8 1330.72,-48.8 1459.28,-48.8 1459.28,-84.8"/>
<text text-anchor="middle" x="1395" y="-62.6" font-family="Times,serif" font-size="14.00">AppRoutingModule</text>
</g>
<!-- AppRoutingModule&#45;&gt;AppModule -->
<g id="edge5" class="edge">
<title>AppRoutingModule&#45;&gt;AppModule</title>
<path fill="none" stroke="black" d="M1395,-85.04C1395,-100.37 1395,-119.8 1395,-119.8 1395,-119.8 1310.91,-119.8 1310.91,-119.8"/>
<polygon fill="black" stroke="black" points="1310.91,-116.3 1300.91,-119.8 1310.91,-123.3 1310.91,-116.3"/>
</g>
<!-- MaterialModule -->
<g id="node7" class="node">
<title>MaterialModule</title>
<polygon fill="#8dd3c7" stroke="black" points="1312.47,-84.8 1309.47,-88.8 1288.47,-88.8 1285.47,-84.8 1205.53,-84.8 1205.53,-48.8 1312.47,-48.8 1312.47,-84.8"/>
<text text-anchor="middle" x="1259" y="-62.6" font-family="Times,serif" font-size="14.00">MaterialModule</text>
</g>
<!-- MaterialModule&#45;&gt;AppModule -->
<g id="edge6" class="edge">
<title>MaterialModule&#45;&gt;AppModule</title>
<path fill="none" stroke="black" d="M1259,-84.91C1259,-84.91 1259,-103.79 1259,-103.79"/>
<polygon fill="black" stroke="black" points="1255.5,-103.79 1259,-113.79 1262.5,-103.79 1255.5,-103.79"/>
</g>
<!-- AdditionalConfigurationService -->
<g id="node9" class="node">
<title>AdditionalConfigurationService</title>
<ellipse fill="#fdb462" stroke="black" cx="1047" cy="-66.8" rx="135.46" ry="18"/>
<text text-anchor="middle" x="1047" y="-62.6" font-family="Times,serif" font-size="14.00">AdditionalConfigurationService</text>
</g>
<!-- AdditionalConfigurationService&#45;&gt;AppModule -->
<g id="edge8" class="edge">
<title>AdditionalConfigurationService&#45;&gt;AppModule</title>
<path fill="none" stroke="black" d="M1047,-85.04C1047,-100.37 1047,-119.8 1047,-119.8 1047,-119.8 1207.12,-119.8 1207.12,-119.8"/>
<polygon fill="black" stroke="black" points="1207.12,-123.3 1217.12,-119.8 1207.12,-116.3 1207.12,-123.3"/>
</g>
<!-- CarService -->
<g id="node10" class="node">
<title>CarService</title>
<ellipse fill="#fdb462" stroke="black" cx="840" cy="-66.8" rx="53.87" ry="18"/>
<text text-anchor="middle" x="840" y="-62.6" font-family="Times,serif" font-size="14.00">CarService</text>
</g>
<!-- CarService&#45;&gt;AppModule -->
<g id="edge9" class="edge">
<title>CarService&#45;&gt;AppModule</title>
<path fill="none" stroke="black" d="M840,-84.82C840,-102.17 840,-125.8 840,-125.8 840,-125.8 1207.29,-125.8 1207.29,-125.8"/>
<polygon fill="black" stroke="black" points="1207.29,-129.3 1217.29,-125.8 1207.29,-122.3 1207.29,-129.3"/>
</g>
<!-- ColorConfigurationService -->
<g id="node11" class="node">
<title>ColorConfigurationService</title>
<ellipse fill="#fdb462" stroke="black" cx="652" cy="-66.8" rx="116.34" ry="18"/>
<text text-anchor="middle" x="652" y="-62.6" font-family="Times,serif" font-size="14.00">ColorConfigurationService</text>
</g>
<!-- ColorConfigurationService&#45;&gt;AppModule -->
<g id="edge10" class="edge">
<title>ColorConfigurationService&#45;&gt;AppModule</title>
<path fill="none" stroke="black" d="M652,-84.91C652,-104.14 652,-131.8 652,-131.8 652,-131.8 1207.28,-131.8 1207.28,-131.8"/>
<polygon fill="black" stroke="black" points="1207.28,-135.3 1217.28,-131.8 1207.28,-128.3 1207.28,-135.3"/>
</g>
<!-- ConfigurationService -->
<g id="node12" class="node">
<title>ConfigurationService</title>
<ellipse fill="#fdb462" stroke="black" cx="424" cy="-66.8" rx="94.34" ry="18"/>
<text text-anchor="middle" x="424" y="-62.6" font-family="Times,serif" font-size="14.00">ConfigurationService</text>
</g>
<!-- ConfigurationService&#45;&gt;AppModule -->
<g id="edge11" class="edge">
<title>ConfigurationService&#45;&gt;AppModule</title>
<path fill="none" stroke="black" d="M424,-85.08C424,-106.12 424,-137.8 424,-137.8 424,-137.8 1207.31,-137.8 1207.31,-137.8"/>
<polygon fill="black" stroke="black" points="1207.31,-141.3 1217.31,-137.8 1207.31,-134.3 1207.31,-141.3"/>
</g>
<!-- PerformanceConfigurationService -->
<g id="node13" class="node">
<title>PerformanceConfigurationService</title>
<ellipse fill="#fdb462" stroke="black" cx="168" cy="-66.8" rx="143.51" ry="18"/>
<text text-anchor="middle" x="168" y="-62.6" font-family="Times,serif" font-size="14.00">PerformanceConfigurationService</text>
</g>
<!-- PerformanceConfigurationService&#45;&gt;AppModule -->
<g id="edge12" class="edge">
<title>PerformanceConfigurationService&#45;&gt;AppModule</title>
<path fill="none" stroke="black" d="M168,-85.05C168,-107.82 168,-143.8 168,-143.8 168,-143.8 1207.23,-143.8 1207.23,-143.8"/>
<polygon fill="black" stroke="black" points="1207.23,-147.3 1217.23,-143.8 1207.23,-140.3 1207.23,-147.3"/>
</g>
</g>
</svg>
