<?xml version="1.0" encoding="UTF-8" standalone="no"?>
<!DOCTYPE svg PUBLIC "-//W3C//DTD SVG 1.1//EN"
 "http://www.w3.org/Graphics/SVG/1.1/DTD/svg11.dtd">
<!-- Generated by graphviz version 5.0.0 (20220707.1540)
 -->
<!-- Title: dependencies Pages: 1 -->
<svg width="1346pt" height="174pt"
 viewBox="0.00 0.00 1346.00 173.80" xmlns="http://www.w3.org/2000/svg" xmlns:xlink="http://www.w3.org/1999/xlink">
<g id="graph0" class="graph" transform="scale(1 1) rotate(0) translate(4 169.8)">
<title>dependencies</title>
<polygon fill="white" stroke="transparent" points="-4,4 -4,-169.8 1342,-169.8 1342,4 -4,4"/>
<text text-anchor="middle" x="669" y="-8.2" font-family="sans-serif" font-size="14.00">dependencies</text>
<g id="clust1" class="cluster">
<title>cluster_AppModule</title>
<polygon fill="none" stroke="black" stroke-dasharray="1,5" points="8,-32.8 8,-157.8 1330,-157.8 1330,-32.8 8,-32.8"/>
</g>
<g id="clust6" class="cluster">
<title>cluster_AppModule_providers</title>
<polygon fill="none" stroke="black" points="16,-40.8 16,-92.8 1322,-92.8 1322,-40.8 16,-40.8"/>
</g>
<!-- AdditionalConfigurationService -->
<g id="node1" class="node">
<title>AdditionalConfigurationService</title>
<ellipse fill="#fdb462" stroke="black" cx="1179" cy="-66.8" rx="135.46" ry="18"/>
<text text-anchor="middle" x="1179" y="-62.6" font-family="Times,serif" font-size="14.00">AdditionalConfigurationService</text>
</g>
<!-- AppModule -->
<g id="node7" class="node">
<title>AppModule</title>
<polygon fill="#8dd3c7" stroke="black" points="787.66,-149.8 784.66,-153.8 763.66,-153.8 760.66,-149.8 704.34,-149.8 704.34,-113.8 787.66,-113.8 787.66,-149.8"/>
<text text-anchor="middle" x="746" y="-127.6" font-family="Times,serif" font-size="14.00">AppModule</text>
</g>
<!-- AdditionalConfigurationService&#45;&gt;AppModule -->
<g id="edge1" class="edge">
<title>AdditionalConfigurationService&#45;&gt;AppModule</title>
<path fill="none" stroke="black" d="M1179,-85.08C1179,-106.12 1179,-137.8 1179,-137.8 1179,-137.8 797.91,-137.8 797.91,-137.8"/>
<polygon fill="black" stroke="black" points="797.91,-134.3 787.91,-137.8 797.91,-141.3 797.91,-134.3"/>
</g>
<!-- AppService -->
<g id="node2" class="node">
<title>AppService</title>
<ellipse fill="#fdb462" stroke="black" cx="969" cy="-66.8" rx="56.75" ry="18"/>
<text text-anchor="middle" x="969" y="-62.6" font-family="Times,serif" font-size="14.00">AppService</text>
</g>
<!-- AppService&#45;&gt;AppModule -->
<g id="edge2" class="edge">
<title>AppService&#45;&gt;AppModule</title>
<path fill="none" stroke="black" d="M969,-84.82C969,-102.17 969,-125.8 969,-125.8 969,-125.8 797.68,-125.8 797.68,-125.8"/>
<polygon fill="black" stroke="black" points="797.68,-122.3 787.68,-125.8 797.68,-129.3 797.68,-122.3"/>
</g>
<!-- CarService -->
<g id="node3" class="node">
<title>CarService</title>
<ellipse fill="#fdb462" stroke="black" cx="840" cy="-66.8" rx="53.87" ry="18"/>
<text text-anchor="middle" x="840" y="-62.6" font-family="Times,serif" font-size="14.00">CarService</text>
</g>
<!-- CarService&#45;&gt;AppModule -->
<g id="edge3" class="edge">
<title>CarService&#45;&gt;AppModule</title>
<path fill="none" stroke="black" d="M785.86,-66.8C780.57,-66.8 777.12,-66.8 777.12,-66.8 777.12,-66.8 777.12,-103.69 777.12,-103.69"/>
<polygon fill="black" stroke="black" points="773.62,-103.69 777.12,-113.69 780.62,-103.69 773.62,-103.69"/>
</g>
<!-- ColorConfigurationService -->
<g id="node4" class="node">
<title>ColorConfigurationService</title>
<ellipse fill="#fdb462" stroke="black" cx="652" cy="-66.8" rx="116.34" ry="18"/>
<text text-anchor="middle" x="652" y="-62.6" font-family="Times,serif" font-size="14.00">ColorConfigurationService</text>
</g>
<!-- ColorConfigurationService&#45;&gt;AppModule -->
<g id="edge4" class="edge">
<title>ColorConfigurationService&#45;&gt;AppModule</title>
<path fill="none" stroke="black" d="M736.17,-79.33C736.17,-79.33 736.17,-103.65 736.17,-103.65"/>
<polygon fill="black" stroke="black" points="732.67,-103.65 736.17,-113.65 739.67,-103.65 732.67,-103.65"/>
</g>
<!-- ConfigurationService -->
<g id="node5" class="node">
<title>ConfigurationService</title>
<ellipse fill="#fdb462" stroke="black" cx="424" cy="-66.8" rx="94.34" ry="18"/>
<text text-anchor="middle" x="424" y="-62.6" font-family="Times,serif" font-size="14.00">ConfigurationService</text>
</g>
<!-- ConfigurationService&#45;&gt;AppModule -->
<g id="edge5" class="edge">
<title>ConfigurationService&#45;&gt;AppModule</title>
<path fill="none" stroke="black" d="M424,-84.82C424,-102.17 424,-125.8 424,-125.8 424,-125.8 694.23,-125.8 694.23,-125.8"/>
<polygon fill="black" stroke="black" points="694.23,-129.3 704.23,-125.8 694.23,-122.3 694.23,-129.3"/>
</g>
<!-- PerformanceConfigurationService -->
<g id="node6" class="node">
<title>PerformanceConfigurationService</title>
<ellipse fill="#fdb462" stroke="black" cx="168" cy="-66.8" rx="143.51" ry="18"/>
<text text-anchor="middle" x="168" y="-62.6" font-family="Times,serif" font-size="14.00">PerformanceConfigurationService</text>
</g>
<!-- PerformanceConfigurationService&#45;&gt;AppModule -->
<g id="edge6" class="edge">
<title>PerformanceConfigurationService&#45;&gt;AppModule</title>
<path fill="none" stroke="black" d="M168,-85.08C168,-106.12 168,-137.8 168,-137.8 168,-137.8 693.97,-137.8 693.97,-137.8"/>
<polygon fill="black" stroke="black" points="693.97,-141.3 703.97,-137.8 693.97,-134.3 693.97,-141.3"/>
</g>
</g>
</svg>
