<?xml version="1.0" encoding="UTF-8" standalone="no"?>
<!DOCTYPE svg PUBLIC "-//W3C//DTD SVG 1.1//EN"
 "http://www.w3.org/Graphics/SVG/1.1/DTD/svg11.dtd">
<!-- Generated by graphviz version 5.0.0 (20220707.1540)
 -->
<!-- Title: dependencies Pages: 1 -->
<svg width="2222pt" height="247pt"
 viewBox="0.00 0.00 2222.00 246.80" xmlns="http://www.w3.org/2000/svg" xmlns:xlink="http://www.w3.org/1999/xlink">
<g id="graph0" class="graph" transform="scale(1 1) rotate(0) translate(4 242.8)">
<title>dependencies</title>
<polygon fill="white" stroke="transparent" points="-4,4 -4,-242.8 2218,-242.8 2218,4 -4,4"/>
<text text-anchor="middle" x="1107" y="-8.2" font-family="sans-serif" font-size="14.00">dependencies</text>
<g id="clust1" class="cluster">
<title>cluster_AppModule</title>
<polygon fill="none" stroke="black" stroke-dasharray="1,5" points="8,-32.8 8,-230.8 2206,-230.8 2206,-32.8 8,-32.8"/>
</g>
<g id="clust9" class="cluster">
<title>cluster_AppModule_bootstrap</title>
<polygon fill="none" stroke="black" points="893,-170.8 893,-222.8 1017,-222.8 1017,-170.8 893,-170.8"/>
</g>
<g id="clust10" class="cluster">
<title>cluster_AppModule_providers</title>
<polygon fill="none" stroke="black" points="1024,-40.8 1024,-92.8 2198,-92.8 2198,-40.8 1024,-40.8"/>
</g>
<g id="clust2" class="cluster">
<title>cluster_AppModule_declarations</title>
<polygon fill="none" stroke="black" points="293,-40.8 293,-92.8 1016,-92.8 1016,-40.8 293,-40.8"/>
</g>
<g id="clust7" class="cluster">
<title>cluster_AppModule_imports</title>
<polygon fill="none" stroke="black" points="16,-40.8 16,-92.8 285,-92.8 285,-40.8 16,-40.8"/>
</g>
<!-- AppComponent -->
<g id="node1" class="node">
<title>AppComponent</title>
<polygon fill="#ffffb3" stroke="black" points="1007.94,-84.8 902.06,-84.8 902.06,-48.8 1007.94,-48.8 1007.94,-84.8"/>
<text text-anchor="middle" x="955" y="-62.6" font-family="Times,serif" font-size="14.00">AppComponent</text>
</g>
<!-- AppModule -->
<g id="node5" class="node">
<title>AppModule</title>
<polygon fill="#8dd3c7" stroke="black" points="996.66,-149.8 993.66,-153.8 972.66,-153.8 969.66,-149.8 913.34,-149.8 913.34,-113.8 996.66,-113.8 996.66,-149.8"/>
<text text-anchor="middle" x="955" y="-127.6" font-family="Times,serif" font-size="14.00">AppModule</text>
</g>
<!-- AppComponent&#45;&gt;AppModule -->
<g id="edge1" class="edge">
<title>AppComponent&#45;&gt;AppModule</title>
<path fill="none" stroke="black" d="M955,-84.91C955,-84.91 955,-103.79 955,-103.79"/>
<polygon fill="black" stroke="black" points="951.5,-103.79 955,-113.79 958.5,-103.79 951.5,-103.79"/>
</g>
<!-- ConfirmationModalComponent -->
<g id="node2" class="node">
<title>ConfirmationModalComponent</title>
<polygon fill="#ffffb3" stroke="black" points="884.82,-84.8 691.18,-84.8 691.18,-48.8 884.82,-48.8 884.82,-84.8"/>
<text text-anchor="middle" x="788" y="-62.6" font-family="Times,serif" font-size="14.00">ConfirmationModalComponent</text>
</g>
<!-- ConfirmationModalComponent&#45;&gt;AppModule -->
<g id="edge2" class="edge">
<title>ConfirmationModalComponent&#45;&gt;AppModule</title>
<path fill="none" stroke="black" d="M788,-85.04C788,-100.37 788,-119.8 788,-119.8 788,-119.8 903.29,-119.8 903.29,-119.8"/>
<polygon fill="black" stroke="black" points="903.29,-123.3 913.29,-119.8 903.29,-116.3 903.29,-123.3"/>
</g>
<!-- EditConfigurationModalComponent -->
<g id="node3" class="node">
<title>EditConfigurationModalComponent</title>
<polygon fill="#ffffb3" stroke="black" points="672.76,-84.8 453.24,-84.8 453.24,-48.8 672.76,-48.8 672.76,-84.8"/>
<text text-anchor="middle" x="563" y="-62.6" font-family="Times,serif" font-size="14.00">EditConfigurationModalComponent</text>
</g>
<!-- EditConfigurationModalComponent&#45;&gt;AppModule -->
<g id="edge3" class="edge">
<title>EditConfigurationModalComponent&#45;&gt;AppModule</title>
<path fill="none" stroke="black" d="M563,-84.82C563,-102.17 563,-125.8 563,-125.8 563,-125.8 903.05,-125.8 903.05,-125.8"/>
<polygon fill="black" stroke="black" points="903.05,-129.3 913.05,-125.8 903.05,-122.3 903.05,-129.3"/>
</g>
<!-- ListViewComponent -->
<g id="node4" class="node">
<title>ListViewComponent</title>
<polygon fill="#ffffb3" stroke="black" points="434.94,-84.8 301.06,-84.8 301.06,-48.8 434.94,-48.8 434.94,-84.8"/>
<text text-anchor="middle" x="368" y="-62.6" font-family="Times,serif" font-size="14.00">ListViewComponent</text>
</g>
<!-- ListViewComponent&#45;&gt;AppModule -->
<g id="edge4" class="edge">
<title>ListViewComponent&#45;&gt;AppModule</title>
<path fill="none" stroke="black" d="M368,-84.91C368,-104.14 368,-131.8 368,-131.8 368,-131.8 903.25,-131.8 903.25,-131.8"/>
<polygon fill="black" stroke="black" points="903.26,-135.3 913.25,-131.8 903.25,-128.3 903.26,-135.3"/>
</g>
<!-- AppComponent  -->
<g id="node8" class="node">
<title>AppComponent </title>
<polygon fill="#80b1d3" stroke="black" points="1009.44,-214.8 900.56,-214.8 900.56,-178.8 1009.44,-178.8 1009.44,-214.8"/>
<text text-anchor="middle" x="955" y="-192.6" font-family="Times,serif" font-size="14.00">AppComponent </text>
</g>
<!-- AppModule&#45;&gt;AppComponent  -->
<g id="edge7" class="edge">
<title>AppModule&#45;&gt;AppComponent </title>
<path fill="none" stroke="black" stroke-dasharray="1,5" d="M955,-149.91C955,-149.91 955,-168.79 955,-168.79"/>
<polygon fill="black" stroke="black" points="951.5,-168.79 955,-178.79 958.5,-168.79 951.5,-168.79"/>
</g>
<!-- AppRoutingModule -->
<g id="node6" class="node">
<title>AppRoutingModule</title>
<polygon fill="#8dd3c7" stroke="black" points="277.28,-84.8 274.28,-88.8 253.28,-88.8 250.28,-84.8 148.72,-84.8 148.72,-48.8 277.28,-48.8 277.28,-84.8"/>
<text text-anchor="middle" x="213" y="-62.6" font-family="Times,serif" font-size="14.00">AppRoutingModule</text>
</g>
<!-- AppRoutingModule&#45;&gt;AppModule -->
<g id="edge5" class="edge">
<title>AppRoutingModule&#45;&gt;AppModule</title>
<path fill="none" stroke="black" d="M213,-85.08C213,-106.12 213,-137.8 213,-137.8 213,-137.8 903.25,-137.8 903.25,-137.8"/>
<polygon fill="black" stroke="black" points="903.25,-141.3 913.25,-137.8 903.25,-134.3 903.25,-141.3"/>
</g>
<!-- MaterialModule -->
<g id="node7" class="node">
<title>MaterialModule</title>
<polygon fill="#8dd3c7" stroke="black" points="130.47,-84.8 127.47,-88.8 106.47,-88.8 103.47,-84.8 23.53,-84.8 23.53,-48.8 130.47,-48.8 130.47,-84.8"/>
<text text-anchor="middle" x="77" y="-62.6" font-family="Times,serif" font-size="14.00">MaterialModule</text>
</g>
<!-- MaterialModule&#45;&gt;AppModule -->
<g id="edge6" class="edge">
<title>MaterialModule&#45;&gt;AppModule</title>
<path fill="none" stroke="black" d="M77,-85.05C77,-107.82 77,-143.8 77,-143.8 77,-143.8 903.24,-143.8 903.24,-143.8"/>
<polygon fill="black" stroke="black" points="903.24,-147.3 913.24,-143.8 903.24,-140.3 903.24,-147.3"/>
</g>
<!-- AdditionalConfigurationService -->
<g id="node9" class="node">
<title>AdditionalConfigurationService</title>
<ellipse fill="#fdb462" stroke="black" cx="2055" cy="-66.8" rx="135.46" ry="18"/>
<text text-anchor="middle" x="2055" y="-62.6" font-family="Times,serif" font-size="14.00">AdditionalConfigurationService</text>
</g>
<!-- AdditionalConfigurationService&#45;&gt;AppModule -->
<g id="edge8" class="edge">
<title>AdditionalConfigurationService&#45;&gt;AppModule</title>
<path fill="none" stroke="black" d="M2055,-85.05C2055,-107.82 2055,-143.8 2055,-143.8 2055,-143.8 1006.78,-143.8 1006.78,-143.8"/>
<polygon fill="black" stroke="black" points="1006.78,-140.3 996.78,-143.8 1006.78,-147.3 1006.78,-140.3"/>
</g>
<!-- CarService -->
<g id="node10" class="node">
<title>CarService</title>
<ellipse fill="#fdb462" stroke="black" cx="1848" cy="-66.8" rx="53.87" ry="18"/>
<text text-anchor="middle" x="1848" y="-62.6" font-family="Times,serif" font-size="14.00">CarService</text>
</g>
<!-- CarService&#45;&gt;AppModule -->
<g id="edge9" class="edge">
<title>CarService&#45;&gt;AppModule</title>
<path fill="none" stroke="black" d="M1848,-85.08C1848,-106.12 1848,-137.8 1848,-137.8 1848,-137.8 1006.87,-137.8 1006.87,-137.8"/>
<polygon fill="black" stroke="black" points="1006.87,-134.3 996.87,-137.8 1006.87,-141.3 1006.87,-134.3"/>
</g>
<!-- ColorConfigurationService -->
<g id="node11" class="node">
<title>ColorConfigurationService</title>
<ellipse fill="#fdb462" stroke="black" cx="1660" cy="-66.8" rx="116.34" ry="18"/>
<text text-anchor="middle" x="1660" y="-62.6" font-family="Times,serif" font-size="14.00">ColorConfigurationService</text>
</g>
<!-- ColorConfigurationService&#45;&gt;AppModule -->
<g id="edge10" class="edge">
<title>ColorConfigurationService&#45;&gt;AppModule</title>
<path fill="none" stroke="black" d="M1660,-84.91C1660,-104.14 1660,-131.8 1660,-131.8 1660,-131.8 1006.73,-131.8 1006.73,-131.8"/>
<polygon fill="black" stroke="black" points="1006.73,-128.3 996.73,-131.8 1006.73,-135.3 1006.73,-128.3"/>
</g>
<!-- ConfigurationService -->
<g id="node12" class="node">
<title>ConfigurationService</title>
<ellipse fill="#fdb462" stroke="black" cx="1432" cy="-66.8" rx="94.34" ry="18"/>
<text text-anchor="middle" x="1432" y="-62.6" font-family="Times,serif" font-size="14.00">ConfigurationService</text>
</g>
<!-- ConfigurationService&#45;&gt;AppModule -->
<g id="edge11" class="edge">
<title>ConfigurationService&#45;&gt;AppModule</title>
<path fill="none" stroke="black" d="M1432,-84.82C1432,-102.17 1432,-125.8 1432,-125.8 1432,-125.8 1006.91,-125.8 1006.91,-125.8"/>
<polygon fill="black" stroke="black" points="1006.91,-122.3 996.91,-125.8 1006.91,-129.3 1006.91,-122.3"/>
</g>
<!-- PerformanceConfigurationService -->
<g id="node13" class="node">
<title>PerformanceConfigurationService</title>
<ellipse fill="#fdb462" stroke="black" cx="1176" cy="-66.8" rx="143.51" ry="18"/>
<text text-anchor="middle" x="1176" y="-62.6" font-family="Times,serif" font-size="14.00">PerformanceConfigurationService</text>
</g>
<!-- PerformanceConfigurationService&#45;&gt;AppModule -->
<g id="edge12" class="edge">
<title>PerformanceConfigurationService&#45;&gt;AppModule</title>
<path fill="none" stroke="black" d="M1176,-85.04C1176,-100.37 1176,-119.8 1176,-119.8 1176,-119.8 1006.83,-119.8 1006.83,-119.8"/>
<polygon fill="black" stroke="black" points="1006.83,-116.3 996.83,-119.8 1006.83,-123.3 1006.83,-116.3"/>
</g>
</g>
</svg>
